<svg xmlns="http://www.w3.org/2000/svg" xmlns:xlink="http://www.w3.org/1999/xlink" fill="none" viewBox="5 0 320 276" width="320" height="276" >

  <style>
    .stroke {
      stroke: #fff;
      stroke-width: 2;
      stroke-miterlimit: 10;
      stroke-linecap: round;
    }
  </style>

  <defs>
    <path id="suitcase-fly-path" d="M179,111c24.19-9.24,29.8-15.84,29.42-20.44C207.18,75.43,138.73,51.78,96,84c-2.93,2.21-31.66,24.52-29,54,3.54,39.18,59.83,61.15,75.7,67.35,53.65,20.94,94.43,8.79,101.78,27.18,2.89,7.25.78,19.69-21.48,42.47" fill="none" stroke-miterlimit="10"/>
  </defs>

  <g id="clouds" transform="translate(0, 10)">
    <animate attributeType="CSS" attributeName="opacity" dur="0.7s"   values="0; 1"/>
    <animate attributeType="CSS" attributeName="opacity" dur="0.4s" values="1; 0; 0; 0;"  begin="1.1s" keyTimes="0; 0.4; 0.8; 1" fill="freeze" />

    <g id="cloud-left" class="stroke">
      <animateMotion values="50, 0; 0, 0" dur="0.3s" calcMode="spline" keySplines="0.24, 0.49, 0.29, 0.89" />
      <animateMotion values="0, 0; 0, -25" dur="0.3s" begin="1.1s" calcMode="spline" keySplines="0.24, 0.49, 0.29, 0.89" fill="freeze"/>

      <path d="M51.31 23.72H91.08"></path>
      <path d="M71.09 13.45H43.73C43.73 10.1613 42.4236 7.00733 40.0981 4.68188C37.7727 2.35643 34.6187 1.05 31.33 1.05C28.0413 1.05 24.8873 2.35643 22.5619 4.68188C20.2364 7.00733 18.93 10.1613 18.93 13.45H1"></path>
      <path d="M79.35 13.45H101.55"></path>
    </g>

    <g id="clouds__group">
      <animateMotion values="120, 0; 0, 0" dur="0.37s" calcMode="spline" keySplines="0.46, 0, 0.24, 1"/>
      <animateMotion values="0, 0; 0, -55" dur="0.2s" begin="1.1s" calcMode="spline" keySplines="0.24, 0.49, 0.29, 0.89" fill="freeze" />

      <g id="cloud-center">
        <path fill="#fff" d="M221.64 65h-19.45a35.49 35.49 0 00-68-13.69A26.34 26.34 0 00121.3 48a26.72 26.72 0 00-24.8 17H81.35a10.5 10.5 0 100 21h140.3a10.5 10.5 0 000-21"></path>
      </g>
      <g id="cloud-right" class="stroke">
        <path d="M258 91.28H297.78"></path>
        <path d="M286.05 81H308.25"></path>
      </g>
    </g>
  </g>

  <g id="leaf-back">
    <g>
      <animateTransform attributeName="transform" type="translate" repeatCount="indefinite" additive="sum" fill="freeze" dur="1.5s" values="251, 195" />
      <animateTransform attributeName="transform" type="rotate"    repeatCount="indefinite" additive="sum" fill="freeze" dur="1.5s" values="0; 5; 0" />
      <animateTransform attributeName="transform" type="translate" repeatCount="indefinite" additive="sum" fill="freeze" dur="1.5s" values="-251, -195" />
      <path fill="#E81A5A" d="M249.34 152.82a2 2 0 013.15 2c-1 7-2.07 20.33 4.85 19.4 4.94-.66-16.65-31.53 19.32-38.16a2 2 0 012.4 1.8 2 2 0 01-.22 1.09c-1.32 2.74-2.83 6.61-2.73 9.9a2 2 0 003.71 1c4.1-6.15 15.1-17.86 36.59-10.7a2 2 0 011.35 1.54c.93 4.8 4.13 23.24-.29 28.72-5.09 6.31-15 4.14-16.18 10.25-1.3 6.91 7.51 4.82 13.42-.22a2 2 0 013.32 1.64c-.25 5.45-2.18 14-11.12 18.69-13.78 7.21-23.48-7-25.19-3.88-2.59 4.66 7.94 8.47 13.78 10.18a2 2 0 01.61 3.59c-10.52 7.74-29.13 10.28-37-5.41-8.3-16.59-12.93-12.49-18.19-20.38-5.71-8.57-4.33-22.54 8.38-31.05h.04zm29.36 32.47c.5 2.73 5.2 3.51 8.35 2.94 3.15-.57 8.47-3.83 8-6.56-.47-2.73-6.62-3.9-9.78-3.33-3.16.57-7.05 4.22-6.55 6.95"></path>
    </g>
    <path stroke="#E81A5A" stroke-miterlimit="10" stroke-width="2" d="M248.87 273.88s-4.91-70.27 5.54-80.72"></path>
  </g>

  <g id="paratroopers" transform="translate(-144.1, -150.95) translate(-57.24, -179.57)">
    <animate attributeType="CSS" attributeName="opacity" begin="0.45s" dur="0.25s" values="0; 1" />

    <animateMotion begin="0.45s" dur="1.6s" additive="sum" fill="freeze">
      <mpath xlink:href="#suitcase-fly-path" />
    </animateMotion>

    <animateTransform attributeName="transform" type="translate" begin="0.45s" dur="1.6s" additive="sum" fill="freeze" calcMode="linear" values="195.25, 288.13" />
    <animateTransform attributeName="transform" type="scale"       begin="0.45s" dur="1.6s" additive="sum" fill="freeze" calcMode="linear" values="0.0, 0.0; 0.1 0.1; 0.2, 0.2; 1" keyTimes="0; 0.2; 0.6; 1" />
    <animateTransform attributeName="transform" type="rotate"      begin="0.45s" dur="1.6s" additive="sum" fill="freeze" calcMode="paced"  values="30; -30; -30; 20; 18.29; -6.48; 0" keyTimes="0; 0.15; 0.47; 0.76; 0.89; 0.94; 1" />
    <animateTransform attributeName="transform" type="translate"  begin="0.45s" dur="1.6s" additive="sum" fill="freeze" calcMode="linear" values="-235.25, -288.13" />

    <g id="parachute">
      <line class="stroke" x1="215.46" y1="218.86" x2="159.87" y2="139.03"/>
      <line class="stroke" x1="215.46" y1="218.86" x2="196.93" y2="139.03"/>
      <line class="stroke" x1="233.99" y1="139.03" x2="215.46" y2="218.86"/>
      <line class="stroke" x1="271.04" y1="139.03" x2="215.46" y2="218.86"/>
      <g>
        <path d="M215.46,83.44A55.58,55.58,0,0,1,271,139c0-6.76-8.3-12.25-18.53-12.25s-18.31,5.35-18.52,12c0,0.08,0,.17,0,0.26,0-6.76-8.3-12.25-18.53-12.25s-18.54,5.49-18.54,12.25c0-.09,0-0.17,0-0.26-0.22-6.64-8.42-12-18.52-12s-18.52,5.49-18.52,12.25a55.58,55.58,0,0,1,55.59-55.59m0-1.66A57.31,57.31,0,0,0,158.22,139a1.66,1.66,0,1,0,3.32,0c0-5.84,7.57-10.59,16.87-10.59,9.11,0,16.68,4.66,16.86,10.38V139a1.66,1.66,0,0,0,3.32,0c0-5.84,7.57-10.59,16.87-10.59s16.87,4.75,16.87,10.59a1.66,1.66,0,0,0,3.32,0v-0.21c0.18-5.73,7.74-10.39,16.86-10.39,9.3,0,16.87,4.75,16.87,10.59a1.66,1.66,0,1,0,3.32,0,57.3,57.3,0,0,0-57.23-57.25" fill="#fff"/>
        <path d="M215.46,83.44c9.92,0,18,20.9,18.54,55.33,0.21-6.65,8.41-12,18.52-12S271,132.27,271,139a55.59,55.59,0,0,0-55.59-55.59" fill="#e81a5a"/>
        <path d="M215.45,83.44A55.58,55.58,0,0,0,159.87,139c0-6.76,8.3-12.25,18.52-12.25s18.3,5.35,18.52,12c0.52-34.43,8.61-55.32,18.53-55.32" fill="#fe6183"/>
        <path d="M215.46,83.44c-9.93,0-18,20.9-18.54,55.32,0,0.09,0,.17,0,0.26,0-6.76,8.3-12.25,18.53-12.25S234,132.27,234,139c0-.09,0-0.17,0-0.26-0.51-34.43-8.6-55.33-18.52-55.33" fill="#f7396b"/>
      </g>
    </g>
    <g id="suitcase">
      <path d="M251.89,328.88a3.54,3.54,0,0,0,3.53-3.53v-5.07a3.53,3.53,0,1,0-7.06,0v5.07a3.55,3.55,0,0,0,3.53,3.53" fill="#a67ee5"/>
      <path d="M251.89,328.88a3.54,3.54,0,0,0,3.53-3.53v-5.07a3.53,3.53,0,1,0-7.06,0v5.07A3.55,3.55,0,0,0,251.89,328.88Z" fill="none" stroke="#fff" stroke-miterlimit="10" stroke-width="2"/>
      <path d="M176.35,328.88a3.54,3.54,0,0,0,3.53-3.53v-5.07a3.53,3.53,0,1,0-7.06,0v5.07a3.54,3.54,0,0,0,3.53,3.53" fill="#a67ee5"/>
      <path d="M176.35,328.88a3.54,3.54,0,0,0,3.53-3.53v-5.07a3.53,3.53,0,1,0-7.06,0v5.07A3.54,3.54,0,0,0,176.35,328.88Z" fill="none" stroke="#fff" stroke-miterlimit="10" stroke-width="2"/>
      <path d="M170.92,320.29h74.5a11.38,11.38,0,0,0,11.35-11.35V242.86a11.38,11.38,0,0,0-11.35-11.35h-74.5a11.38,11.38,0,0,0-11.35,11.35v66.08a11.38,11.38,0,0,0,11.35,11.35" fill="#a67ee5"/>
      <rect x="159.57" y="231.51" width="97.2" height="88.78" rx="11.35" ry="11.35" fill="none" stroke="#fff" stroke-miterlimit="10" stroke-width="2"/>
      <path d="M199.26,219.15h32.4a4.09,4.09,0,0,1,4.08,4.08v16a1.19,1.19,0,0,1-1.19,1.19h-2.7a1.19,1.19,0,0,1-1.19-1.19V224.86a1.27,1.27,0,0,0-1.27-1.27H201.53a1.27,1.27,0,0,0-1.27,1.27v14.38a1.19,1.19,0,0,1-1.19,1.19h-2.7a1.19,1.19,0,0,1-1.19-1.19v-16a4.1,4.1,0,0,1,4.09-4.08" fill="#a67ee5"/>
      <path d="M199.26,219.15h32.4a4.09,4.09,0,0,1,4.08,4.08v16a1.19,1.19,0,0,1-1.19,1.19h-2.7a1.19,1.19,0,0,1-1.19-1.19V224.86a1.27,1.27,0,0,0-1.27-1.27H201.53a1.27,1.27,0,0,0-1.27,1.27v14.38a1.19,1.19,0,0,1-1.19,1.19h-2.7a1.19,1.19,0,0,1-1.19-1.19v-16A4.1,4.1,0,0,1,199.26,219.15Z"  fill="none" stroke="#fff" stroke-miterlimit="10" stroke-width="2"/>
      <path d="M185.34,320.29h74.5a11.38,11.38,0,0,0,11.35-11.35V242.86a11.38,11.38,0,0,0-11.35-11.35h-74.5A11.38,11.38,0,0,0,174,242.86v66.08a11.39,11.39,0,0,0,11.35,11.35" fill="#a67ee5"/>
      <path d="M185.34,320.29h74.5a11.38,11.38,0,0,0,11.35-11.35V242.86a11.38,11.38,0,0,0-11.35-11.35h-74.5A11.38,11.38,0,0,0,174,242.86v66.08A11.39,11.39,0,0,0,185.34,320.29Z" fill="none" stroke="#fff" stroke-miterlimit="10" stroke-width="2"/>
      <line class="stroke" x1="254.22" y1="252.43" x2="190.97" y2="252.43"/>
      <line class="stroke" x1="254.22" y1="275.9" x2="190.97" y2="275.9"/>
      <line class="stroke" x1="254.22" y1="299.38" x2="190.97" y2="299.38"/>
      <path d="M168.12,253.68h0.67v44.46h-0.67a3.53,3.53,0,0,1-3.52-3.51V257.2a3.52,3.52,0,0,1,3.52-3.52" fill="#a67ee5"/>
      <path d="M168.12,253.68h0.67v44.46h-0.67a3.53,3.53,0,0,1-3.52-3.51V257.2A3.52,3.52,0,0,1,168.12,253.68Z" fill="none" stroke="#fff" stroke-miterlimit="10" stroke-width="2"/>
    </g>
  </g>

  <g id="leaf-front">
    <animateTransform attributeName="transform" type="translate" repeatCount="indefinite" additive="sum" fill="freeze" dur="2s" values="231, 273.88" />
    <animateTransform attributeName="transform" type="rotate"     repeatCount="indefinite"  additive="sum" fill="freeze" dur="2s" values="0; 10; 0; -6; 0; 3; 0" />
    <animateTransform attributeName="transform" type="translate" repeatCount="indefinite" additive="sum" fill="freeze" dur="2s" values="-231, -273.88" />
    <path fill="#FE6183" d="M308.79 229.4a2.14 2.14 0 01.55 2.17c-1.06 3.43-4.58 12.85-12.1 16.34-5.13 2.38-8.33-2.7-10.92.77s2.1 5 6.92 4.31a2.16 2.16 0 012.14 3.34 14.34 14.34 0 01-11.73 6.67c-10.84.27-12.55-11.58-14.57-10.19-2.72 1.89 1.27 6.55 4.39 9.57a2.17 2.17 0 01-.17 3.26c-.32.26-.72.41-1.13.45-8.76.84-19.72-3.51-19.8-15-.08-12.94-4.25-11.8-5.11-18.35-.91-6.88 3.88-14.88 13.74-16.69a2.16 2.16 0 012.31 3.11c-2.41 4.73-6 12.6-2.82 12.56 3.46 0-1.58-22.58 28.43-15.26a2.16 2.16 0 011.09 3.54l-.1.11a2.16 2.16 0 002.41 3.45c3.66-1.52 9.16-1.27 16.47 5.84"></path>
    <path stroke="#FE6183" stroke-miterlimit="10" stroke-width="2" d="M231 273.88s3.48-30.11 21.7-30.11"></path>
  </g>

  <line id="ground" class="stroke" x1="27" y1="275" x2="280" y2="275">
    <animate attributeName="x2" values="27; 267" dur="0.2s" fill="freeze" />
    <animate attributeName="x1" values="27; 130" dur="0.2s" begin="0.2" fill="freeze" />
  </line>
</svg>

